# xmcd
#
# Track frame offsets: 
#        150
#        10040
#        23717
#        37272
#        48202
#        63260
#        77570
#        87975
#        101892
#        114987
#        127875
#
# Disc length: 2060 seconds
#
# Revision: 0
# Processed by: cddbd v1.4PL0 Copyright (c) Steve Scherf et al.
# Submitted via: ExactAudioCopy v0.90a11
#
DISCID=7f080a0b
DTITLE=Buddy Emmons - Christmas Sounds of the Steel Guitar
DYEAR=1900
DGENRE=
TTITLE0=Sleigh Ride
TTITLE1=Have Yourself a Merrly Little Christmas
TTITLE2=White Christmas
TTITLE3=Winter Wonderland
TTITLE4=The Christmas Song
TTITLE5=Silver Bells
TTITLE6=Let it Snow, Let it Snow, Let it Snow
TTITLE7=O Holy Night
TTITLE8=Blue Christmas
TTITLE9=I'll Be Home for Christmas
TTITLE10=Christmas Medley
EXTD=
EXTT0=
EXTT1=
EXTT2=
EXTT3=
EXTT4=
EXTT5=
EXTT6=
EXTT7=
EXTT8=
EXTT9=
EXTT10=
PLAYORDER=
